<mxfile host="app.diagrams.net" modified="2020-09-17T21:54:01.316Z" agent="5.0 (X11; Linux x86_64) AppleWebKit/537.36 (KHTML, like Gecko) Chrome/85.0.4183.102 Safari/537.36" etag="USspr337AW_zjtqtZ_4R" version="13.7.3" type="github">
  <diagram id="C5RBs43oDa-KdzZeNtuy" name="Page-1">
    <mxGraphModel dx="868" dy="502" grid="1" gridSize="10" guides="1" tooltips="1" connect="1" arrows="1" fold="1" page="1" pageScale="1" pageWidth="827" pageHeight="1169" math="0" shadow="0">
      <root>
        <mxCell id="WIyWlLk6GJQsqaUBKTNV-0" />
        <mxCell id="WIyWlLk6GJQsqaUBKTNV-1" parent="WIyWlLk6GJQsqaUBKTNV-0" />
        <mxCell id="P1EhhHWiZLxfYlcSwand-1" value="Usuario" style="text;html=1;strokeColor=#d79b00;fillColor=#ffe6cc;align=center;verticalAlign=middle;whiteSpace=wrap;rounded=0;" vertex="1" parent="WIyWlLk6GJQsqaUBKTNV-1">
          <mxGeometry x="60" y="30" width="40" height="20" as="geometry" />
        </mxCell>
        <mxCell id="P1EhhHWiZLxfYlcSwand-2" value="Help Desk" style="text;html=1;strokeColor=#6c8ebf;fillColor=#dae8fc;align=center;verticalAlign=middle;whiteSpace=wrap;rounded=0;" vertex="1" parent="WIyWlLk6GJQsqaUBKTNV-1">
          <mxGeometry x="60" y="230" width="40" height="20" as="geometry" />
        </mxCell>
        <mxCell id="P1EhhHWiZLxfYlcSwand-3" value="Desenvolvimento" style="text;html=1;strokeColor=#b85450;fillColor=#f8cecc;align=center;verticalAlign=middle;whiteSpace=wrap;rounded=0;" vertex="1" parent="WIyWlLk6GJQsqaUBKTNV-1">
          <mxGeometry x="60" y="330" width="40" height="20" as="geometry" />
        </mxCell>
        <mxCell id="P1EhhHWiZLxfYlcSwand-35" style="edgeStyle=orthogonalEdgeStyle;rounded=0;orthogonalLoop=1;jettySize=auto;html=1;" edge="1" parent="WIyWlLk6GJQsqaUBKTNV-1" source="P1EhhHWiZLxfYlcSwand-4" target="P1EhhHWiZLxfYlcSwand-7">
          <mxGeometry relative="1" as="geometry" />
        </mxCell>
        <mxCell id="P1EhhHWiZLxfYlcSwand-4" value="Identifica problemas" style="rounded=0;whiteSpace=wrap;html=1;fillColor=#ffe6cc;strokeColor=#d79b00;" vertex="1" parent="WIyWlLk6GJQsqaUBKTNV-1">
          <mxGeometry x="150" y="15" width="120" height="50" as="geometry" />
        </mxCell>
        <mxCell id="P1EhhHWiZLxfYlcSwand-6" value="Setor Responsavel" style="text;html=1;strokeColor=#82b366;fillColor=#d5e8d4;align=center;verticalAlign=middle;whiteSpace=wrap;rounded=0;" vertex="1" parent="WIyWlLk6GJQsqaUBKTNV-1">
          <mxGeometry x="60" y="130" width="40" height="20" as="geometry" />
        </mxCell>
        <mxCell id="P1EhhHWiZLxfYlcSwand-36" style="edgeStyle=orthogonalEdgeStyle;rounded=0;orthogonalLoop=1;jettySize=auto;html=1;entryX=0;entryY=0.5;entryDx=0;entryDy=0;exitX=0.5;exitY=1;exitDx=0;exitDy=0;" edge="1" parent="WIyWlLk6GJQsqaUBKTNV-1" source="P1EhhHWiZLxfYlcSwand-7" target="P1EhhHWiZLxfYlcSwand-8">
          <mxGeometry relative="1" as="geometry" />
        </mxCell>
        <mxCell id="P1EhhHWiZLxfYlcSwand-7" value="Identifica problemas / Reporta ao Help Desk" style="rounded=0;whiteSpace=wrap;html=1;fillColor=#d5e8d4;strokeColor=#82b366;" vertex="1" parent="WIyWlLk6GJQsqaUBKTNV-1">
          <mxGeometry x="150" y="115" width="120" height="50" as="geometry" />
        </mxCell>
        <mxCell id="P1EhhHWiZLxfYlcSwand-37" style="edgeStyle=orthogonalEdgeStyle;rounded=0;orthogonalLoop=1;jettySize=auto;html=1;exitX=1;exitY=0.5;exitDx=0;exitDy=0;" edge="1" parent="WIyWlLk6GJQsqaUBKTNV-1" source="P1EhhHWiZLxfYlcSwand-8" target="P1EhhHWiZLxfYlcSwand-9">
          <mxGeometry relative="1" as="geometry" />
        </mxCell>
        <mxCell id="P1EhhHWiZLxfYlcSwand-8" value="Analisa problemas" style="rounded=0;whiteSpace=wrap;html=1;fillColor=#dae8fc;strokeColor=#6c8ebf;" vertex="1" parent="WIyWlLk6GJQsqaUBKTNV-1">
          <mxGeometry x="294" y="210" width="120" height="60" as="geometry" />
        </mxCell>
        <mxCell id="P1EhhHWiZLxfYlcSwand-38" style="edgeStyle=orthogonalEdgeStyle;rounded=0;orthogonalLoop=1;jettySize=auto;html=1;exitX=0.5;exitY=0;exitDx=0;exitDy=0;entryX=0.5;entryY=1;entryDx=0;entryDy=0;" edge="1" parent="WIyWlLk6GJQsqaUBKTNV-1" source="P1EhhHWiZLxfYlcSwand-9" target="P1EhhHWiZLxfYlcSwand-12">
          <mxGeometry relative="1" as="geometry" />
        </mxCell>
        <mxCell id="P1EhhHWiZLxfYlcSwand-39" style="edgeStyle=orthogonalEdgeStyle;rounded=0;orthogonalLoop=1;jettySize=auto;html=1;exitX=1;exitY=0.5;exitDx=0;exitDy=0;entryX=0;entryY=0.5;entryDx=0;entryDy=0;" edge="1" parent="WIyWlLk6GJQsqaUBKTNV-1" source="P1EhhHWiZLxfYlcSwand-9" target="P1EhhHWiZLxfYlcSwand-13">
          <mxGeometry relative="1" as="geometry" />
        </mxCell>
        <mxCell id="P1EhhHWiZLxfYlcSwand-9" value="Resolvido" style="rhombus;whiteSpace=wrap;html=1;fillColor=#dae8fc;strokeColor=#6c8ebf;" vertex="1" parent="WIyWlLk6GJQsqaUBKTNV-1">
          <mxGeometry x="490" y="200" width="80" height="80" as="geometry" />
        </mxCell>
        <mxCell id="P1EhhHWiZLxfYlcSwand-12" value="Chamado Encerrado" style="rounded=0;whiteSpace=wrap;html=1;fillColor=#d5e8d4;strokeColor=#82b366;" vertex="1" parent="WIyWlLk6GJQsqaUBKTNV-1">
          <mxGeometry x="470" y="105" width="120" height="60" as="geometry" />
        </mxCell>
        <mxCell id="P1EhhHWiZLxfYlcSwand-15" value="" style="edgeStyle=orthogonalEdgeStyle;rounded=0;orthogonalLoop=1;jettySize=auto;html=1;" edge="1" parent="WIyWlLk6GJQsqaUBKTNV-1" source="P1EhhHWiZLxfYlcSwand-13" target="P1EhhHWiZLxfYlcSwand-14">
          <mxGeometry relative="1" as="geometry" />
        </mxCell>
        <mxCell id="P1EhhHWiZLxfYlcSwand-13" value="Verifica necessidade&amp;nbsp;" style="rounded=0;whiteSpace=wrap;html=1;fillColor=#dae8fc;strokeColor=#6c8ebf;" vertex="1" parent="WIyWlLk6GJQsqaUBKTNV-1">
          <mxGeometry x="640" y="210" width="120" height="60" as="geometry" />
        </mxCell>
        <mxCell id="P1EhhHWiZLxfYlcSwand-17" value="" style="edgeStyle=orthogonalEdgeStyle;rounded=0;orthogonalLoop=1;jettySize=auto;html=1;" edge="1" parent="WIyWlLk6GJQsqaUBKTNV-1" source="P1EhhHWiZLxfYlcSwand-14" target="P1EhhHWiZLxfYlcSwand-16">
          <mxGeometry relative="1" as="geometry" />
        </mxCell>
        <mxCell id="P1EhhHWiZLxfYlcSwand-14" value="Reporta ao Ti" style="whiteSpace=wrap;html=1;rounded=0;fillColor=#f8cecc;strokeColor=#b85450;" vertex="1" parent="WIyWlLk6GJQsqaUBKTNV-1">
          <mxGeometry x="640" y="300" width="120" height="60" as="geometry" />
        </mxCell>
        <mxCell id="P1EhhHWiZLxfYlcSwand-19" value="" style="edgeStyle=orthogonalEdgeStyle;rounded=0;orthogonalLoop=1;jettySize=auto;html=1;" edge="1" parent="WIyWlLk6GJQsqaUBKTNV-1" source="P1EhhHWiZLxfYlcSwand-16" target="P1EhhHWiZLxfYlcSwand-18">
          <mxGeometry relative="1" as="geometry" />
        </mxCell>
        <mxCell id="P1EhhHWiZLxfYlcSwand-16" value="Prioriza demanda" style="whiteSpace=wrap;html=1;rounded=0;fillColor=#f8cecc;strokeColor=#b85450;" vertex="1" parent="WIyWlLk6GJQsqaUBKTNV-1">
          <mxGeometry x="840" y="300" width="120" height="60" as="geometry" />
        </mxCell>
        <mxCell id="P1EhhHWiZLxfYlcSwand-21" value="" style="edgeStyle=orthogonalEdgeStyle;rounded=0;orthogonalLoop=1;jettySize=auto;html=1;" edge="1" parent="WIyWlLk6GJQsqaUBKTNV-1" source="P1EhhHWiZLxfYlcSwand-18" target="P1EhhHWiZLxfYlcSwand-20">
          <mxGeometry relative="1" as="geometry" />
        </mxCell>
        <mxCell id="P1EhhHWiZLxfYlcSwand-30" style="edgeStyle=orthogonalEdgeStyle;rounded=0;orthogonalLoop=1;jettySize=auto;html=1;entryX=0.5;entryY=1;entryDx=0;entryDy=0;" edge="1" parent="WIyWlLk6GJQsqaUBKTNV-1" source="P1EhhHWiZLxfYlcSwand-18" target="P1EhhHWiZLxfYlcSwand-16">
          <mxGeometry relative="1" as="geometry">
            <mxPoint x="1050" y="390" as="targetPoint" />
            <Array as="points">
              <mxPoint x="1070" y="390" />
              <mxPoint x="900" y="390" />
            </Array>
          </mxGeometry>
        </mxCell>
        <mxCell id="P1EhhHWiZLxfYlcSwand-18" value="Requisito Priorizado" style="rhombus;whiteSpace=wrap;html=1;rounded=0;fillColor=#f8cecc;strokeColor=#b85450;" vertex="1" parent="WIyWlLk6GJQsqaUBKTNV-1">
          <mxGeometry x="1030" y="290" width="80" height="80" as="geometry" />
        </mxCell>
        <mxCell id="P1EhhHWiZLxfYlcSwand-23" value="" style="edgeStyle=orthogonalEdgeStyle;rounded=0;orthogonalLoop=1;jettySize=auto;html=1;" edge="1" parent="WIyWlLk6GJQsqaUBKTNV-1" source="P1EhhHWiZLxfYlcSwand-20" target="P1EhhHWiZLxfYlcSwand-22">
          <mxGeometry relative="1" as="geometry" />
        </mxCell>
        <mxCell id="P1EhhHWiZLxfYlcSwand-20" value="Enviado a programador" style="whiteSpace=wrap;html=1;rounded=0;fillColor=#f8cecc;strokeColor=#b85450;" vertex="1" parent="WIyWlLk6GJQsqaUBKTNV-1">
          <mxGeometry x="1170" y="300" width="120" height="60" as="geometry" />
        </mxCell>
        <mxCell id="P1EhhHWiZLxfYlcSwand-25" value="" style="edgeStyle=orthogonalEdgeStyle;rounded=0;orthogonalLoop=1;jettySize=auto;html=1;" edge="1" parent="WIyWlLk6GJQsqaUBKTNV-1" source="P1EhhHWiZLxfYlcSwand-22" target="P1EhhHWiZLxfYlcSwand-24">
          <mxGeometry relative="1" as="geometry" />
        </mxCell>
        <mxCell id="P1EhhHWiZLxfYlcSwand-27" value="" style="edgeStyle=orthogonalEdgeStyle;rounded=0;orthogonalLoop=1;jettySize=auto;html=1;" edge="1" parent="WIyWlLk6GJQsqaUBKTNV-1" source="P1EhhHWiZLxfYlcSwand-22" target="P1EhhHWiZLxfYlcSwand-26">
          <mxGeometry relative="1" as="geometry" />
        </mxCell>
        <mxCell id="P1EhhHWiZLxfYlcSwand-22" value="Realiza teste" style="whiteSpace=wrap;html=1;rounded=0;fillColor=#dae8fc;strokeColor=#6c8ebf;" vertex="1" parent="WIyWlLk6GJQsqaUBKTNV-1">
          <mxGeometry x="1170" y="200" width="120" height="60" as="geometry" />
        </mxCell>
        <mxCell id="P1EhhHWiZLxfYlcSwand-29" style="edgeStyle=orthogonalEdgeStyle;rounded=0;orthogonalLoop=1;jettySize=auto;html=1;" edge="1" parent="WIyWlLk6GJQsqaUBKTNV-1" source="P1EhhHWiZLxfYlcSwand-24" target="P1EhhHWiZLxfYlcSwand-20">
          <mxGeometry relative="1" as="geometry" />
        </mxCell>
        <mxCell id="P1EhhHWiZLxfYlcSwand-32" value="" style="edgeStyle=orthogonalEdgeStyle;rounded=0;orthogonalLoop=1;jettySize=auto;html=1;" edge="1" parent="WIyWlLk6GJQsqaUBKTNV-1" source="P1EhhHWiZLxfYlcSwand-24" target="P1EhhHWiZLxfYlcSwand-31">
          <mxGeometry relative="1" as="geometry" />
        </mxCell>
        <mxCell id="P1EhhHWiZLxfYlcSwand-24" value="Faz correção e melhorias" style="whiteSpace=wrap;html=1;rounded=0;fillColor=#f8cecc;strokeColor=#b85450;" vertex="1" parent="WIyWlLk6GJQsqaUBKTNV-1">
          <mxGeometry x="1340" y="300" width="120" height="60" as="geometry" />
        </mxCell>
        <mxCell id="P1EhhHWiZLxfYlcSwand-28" style="edgeStyle=orthogonalEdgeStyle;rounded=0;orthogonalLoop=1;jettySize=auto;html=1;" edge="1" parent="WIyWlLk6GJQsqaUBKTNV-1" source="P1EhhHWiZLxfYlcSwand-26" target="P1EhhHWiZLxfYlcSwand-24">
          <mxGeometry relative="1" as="geometry" />
        </mxCell>
        <mxCell id="P1EhhHWiZLxfYlcSwand-26" value="Homologação" style="whiteSpace=wrap;html=1;rounded=0;fillColor=#d5e8d4;strokeColor=#82b366;" vertex="1" parent="WIyWlLk6GJQsqaUBKTNV-1">
          <mxGeometry x="1170" y="105" width="120" height="60" as="geometry" />
        </mxCell>
        <mxCell id="P1EhhHWiZLxfYlcSwand-34" value="" style="edgeStyle=orthogonalEdgeStyle;rounded=0;orthogonalLoop=1;jettySize=auto;html=1;" edge="1" parent="WIyWlLk6GJQsqaUBKTNV-1" source="P1EhhHWiZLxfYlcSwand-31" target="P1EhhHWiZLxfYlcSwand-33">
          <mxGeometry relative="1" as="geometry" />
        </mxCell>
        <mxCell id="P1EhhHWiZLxfYlcSwand-31" value="Geração de pacote" style="whiteSpace=wrap;html=1;rounded=0;fillColor=#f8cecc;strokeColor=#b85450;" vertex="1" parent="WIyWlLk6GJQsqaUBKTNV-1">
          <mxGeometry x="1540" y="300" width="120" height="60" as="geometry" />
        </mxCell>
        <mxCell id="P1EhhHWiZLxfYlcSwand-33" value="Desenvolvimento" style="whiteSpace=wrap;html=1;rounded=0;fillColor=#f8cecc;strokeColor=#b85450;" vertex="1" parent="WIyWlLk6GJQsqaUBKTNV-1">
          <mxGeometry x="1740" y="300" width="120" height="60" as="geometry" />
        </mxCell>
      </root>
    </mxGraphModel>
  </diagram>
</mxfile>
